<svg
    xmlns="http://www.w3.org/2000/svg"
    width="50"
    height="50"
    viewBox="0 0 168 168"
>
    <circle cx="84" cy="84" r="84" fill="#1ED760"/>

    <path
        d="M119.1 113.4c-1.4 2.3-4.4 3-6.7 1.6-18.4-11.3-41.5-13.8-68.7-7.4-2.7.6-5.4-1.1-6-3.8-.6-2.7 1.1-5.4 3.8-6 29.8-7 55.5-4.1 76.2 8.6 2.3 1.4 3 4.4 1.4 7z"
        fill="black"
    />

    <path
        d="M128.7 90.5c-1.8 2.9-5.6 3.8-8.5 2-21.1-13-53.3-16.8-78.3-9.3-3.3 1-6.8-.9-7.8-4.2-1-3.3.9-6.8 4.2-7.8 28.6-8.7 64.2-4.4 88.4 10.5 2.9 1.8 3.8 5.6 2 8.8z"
        fill="black"
    />

    <path
        d="M130.3 66.5c-25.3-15-67-16.4-91.1-9.1-3.9 1.2-8-1-9.2-4.9-1.2-3.9 1-8 4.9-9.2 27.7-8.4 73.7-6.8 103 10.5 3.5 2.1 4.6 6.6 2.5 10.1-2.1 3.5-6.6 4.6-10.1 2.6z"
        fill="black"
    />
</svg>